<svg xmlns="http://www.w3.org/2000/svg" xmlns:xlink="http://www.w3.org/1999/xlink" width="802pt" height="226pt" viewBox="0.00 0.00 802.00 226.00">
<g id="graph0" class="graph" transform="scale(1 1) rotate(0) translate(4 221.6)">
<title>DependencyDiagram</title>
<polygon fill="white" stroke="none" points="-4,4 -4,-221.6 798,-221.6 798,4 -4,4"/>
<g id="clust1" class="cluster">
<title>cluster_framework</title>
<polygon fill="lightgrey" stroke="lightgrey" points="8,-8 8,-165.2 216,-165.2 216,-8 8,-8"/>
<text xml:space="preserve" text-anchor="middle" x="112" y="-148.6" font-family="Times,serif" font-size="14.00">Framework</text>
</g>
<g id="clust2" class="cluster">
<title>cluster_data</title>
<polygon fill="lightyellow" stroke="lightyellow" points="224,-10.8 224,-165.2 390,-165.2 390,-10.8 224,-10.8"/>
<text xml:space="preserve" text-anchor="middle" x="307" y="-148.6" font-family="Times,serif" font-size="14.00">      Data layer</text>
</g>
<g id="clust3" class="cluster">
<title>cluster_frontend</title>
<polygon fill="lightblue" stroke="lightblue" points="398,-85.6 398,-168 654,-168 654,-85.6 398,-85.6"/>
<text xml:space="preserve" text-anchor="middle" x="526" y="-151.4" font-family="Times,serif" font-size="14.00">Frontend</text>
</g>
<g id="clust4" class="cluster">
<title>cluster_config</title>
<polygon fill="lightgreen" stroke="lightgreen" points="662,-88.4 662,-165.2 786,-165.2 786,-88.4 662,-88.4"/>
<text xml:space="preserve" text-anchor="middle" x="724" y="-148.6" font-family="Times,serif" font-size="14.00">   Configuration</text>
</g>
<!-- app -->
<g id="node1" class="node">
<title>app</title>
<path fill="none" stroke="black" stroke-width="2" d="M461.63,-217.6C461.63,-217.6 360.37,-217.6 360.37,-217.6 354.37,-217.6 348.37,-211.6 348.37,-205.6 348.37,-205.6 348.37,-188 348.37,-188 348.37,-182 354.37,-176 360.37,-176 360.37,-176 461.63,-176 461.63,-176 467.63,-176 473.63,-182 473.63,-188 473.63,-188 473.63,-205.6 473.63,-205.6 473.63,-211.6 467.63,-217.6 461.63,-217.6"/>
<text xml:space="preserve" text-anchor="middle" x="411" y="-201" font-family="Times,serif" font-size="14.00">app.py</text>
<text xml:space="preserve" text-anchor="middle" x="411" y="-184.2" font-family="Times,serif" font-size="14.00">(Flask Application)</text>
</g>
<!-- flask -->
<g id="node2" class="node">
<title>flask</title>
<path fill="none" stroke="black" d="M179,-132.4C179,-132.4 149,-132.4 149,-132.4 143,-132.4 137,-126.4 137,-120.4 137,-120.4 137,-108.4 137,-108.4 137,-102.4 143,-96.4 149,-96.4 149,-96.4 179,-96.4 179,-96.4 185,-96.4 191,-102.4 191,-108.4 191,-108.4 191,-120.4 191,-120.4 191,-126.4 185,-132.4 179,-132.4"/>
<text xml:space="preserve" text-anchor="middle" x="164" y="-110.2" font-family="Times,serif" font-size="14.00">Flask</text>
</g>
<!-- app&#45;&gt;flask -->
<g id="edge1" class="edge">
<title>app-&gt;flask</title>
<path fill="none" stroke="black" d="M348.19,-190.74C301.46,-186.22 242.11,-178.66 220,-168 206.9,-161.68 194.8,-151.2 185.22,-141.25"/>
<polygon fill="black" stroke="black" points="187.83,-138.92 178.51,-133.88 182.65,-143.63 187.83,-138.92"/>
</g>
<!-- sqlite -->
<g id="node5" class="node">
<title>sqlite</title>
<path fill="none" stroke="black" d="M274,-132.4C274,-132.4 244,-132.4 244,-132.4 238,-132.4 232,-126.4 232,-120.4 232,-120.4 232,-108.4 232,-108.4 232,-102.4 238,-96.4 244,-96.4 244,-96.4 274,-96.4 274,-96.4 280,-96.4 286,-102.4 286,-108.4 286,-108.4 286,-120.4 286,-120.4 286,-126.4 280,-132.4 274,-132.4"/>
<text xml:space="preserve" text-anchor="middle" x="259" y="-110.2" font-family="Times,serif" font-size="14.00">sqlite3</text>
</g>
<!-- app&#45;&gt;sqlite -->
<g id="edge2" class="edge">
<title>app-&gt;sqlite</title>
<path fill="none" stroke="black" d="M347.9,-189.36C329.67,-185.29 310.52,-178.69 295,-168 285.7,-161.59 278.09,-151.93 272.3,-142.63"/>
<polygon fill="black" stroke="black" points="275.48,-141.13 267.49,-134.17 269.39,-144.59 275.48,-141.13"/>
</g>
<!-- schema -->
<g id="node7" class="node">
<title>schema</title>
<path fill="none" stroke="black" d="M369.91,-132.4C369.91,-132.4 316.09,-132.4 316.09,-132.4 310.09,-132.4 304.09,-126.4 304.09,-120.4 304.09,-120.4 304.09,-108.4 304.09,-108.4 304.09,-102.4 310.09,-96.4 316.09,-96.4 316.09,-96.4 369.91,-96.4 369.91,-96.4 375.91,-96.4 381.91,-102.4 381.91,-108.4 381.91,-108.4 381.91,-120.4 381.91,-120.4 381.91,-126.4 375.91,-132.4 369.91,-132.4"/>
<text xml:space="preserve" text-anchor="middle" x="343" y="-110.2" font-family="Times,serif" font-size="14.00">schema.sql</text>
</g>
<!-- app&#45;&gt;schema -->
<g id="edge9" class="edge">
<title>app-&gt;schema</title>
<path fill="none" stroke="black" d="M393.84,-175.51C385.02,-165.09 374.19,-152.27 364.78,-141.16"/>
<polygon fill="black" stroke="black" points="367.73,-139.22 358.6,-133.84 362.38,-143.74 367.73,-139.22"/>
</g>
<!-- templates -->
<g id="node8" class="node">
<title>templates</title>
<path fill="none" stroke="black" d="M539.92,-135.2C539.92,-135.2 418.08,-135.2 418.08,-135.2 412.08,-135.2 406.08,-129.2 406.08,-123.2 406.08,-123.2 406.08,-105.6 406.08,-105.6 406.08,-99.6 412.08,-93.6 418.08,-93.6 418.08,-93.6 539.92,-93.6 539.92,-93.6 545.92,-93.6 551.92,-99.6 551.92,-105.6 551.92,-105.6 551.92,-123.2 551.92,-123.2 551.92,-129.2 545.92,-135.2 539.92,-135.2"/>
<text xml:space="preserve" text-anchor="middle" x="479" y="-118.6" font-family="Times,serif" font-size="14.00">HTML Templates</text>
<text xml:space="preserve" text-anchor="middle" x="479" y="-101.8" font-family="Times,serif" font-size="14.00">(search, login, register)</text>
</g>
<!-- app&#45;&gt;templates -->
<g id="edge3" class="edge">
<title>app-&gt;templates</title>
<path fill="none" stroke="black" d="M428.16,-175.51C436.13,-166.09 445.76,-154.7 454.48,-144.39"/>
<polygon fill="black" stroke="black" points="457.08,-146.73 460.87,-136.84 451.74,-142.21 457.08,-146.73"/>
</g>
<!-- static -->
<g id="node9" class="node">
<title>static</title>
<path fill="none" stroke="black" d="M633.74,-135.2C633.74,-135.2 582.26,-135.2 582.26,-135.2 576.26,-135.2 570.26,-129.2 570.26,-123.2 570.26,-123.2 570.26,-105.6 570.26,-105.6 570.26,-99.6 576.26,-93.6 582.26,-93.6 582.26,-93.6 633.74,-93.6 633.74,-93.6 639.74,-93.6 645.74,-99.6 645.74,-105.6 645.74,-105.6 645.74,-123.2 645.74,-123.2 645.74,-129.2 639.74,-135.2 633.74,-135.2"/>
<text xml:space="preserve" text-anchor="middle" x="608" y="-118.6" font-family="Times,serif" font-size="14.00">Static files</text>
<text xml:space="preserve" text-anchor="middle" x="608" y="-101.8" font-family="Times,serif" font-size="14.00">(CSS / JS)</text>
</g>
<!-- app&#45;&gt;static -->
<g id="edge4" class="edge">
<title>app-&gt;static</title>
<path fill="none" stroke="black" d="M473.97,-193.29C502.06,-189.93 534.68,-182.8 561,-168 571.22,-162.25 580.37,-153.45 587.82,-144.67"/>
<polygon fill="black" stroke="black" points="590.54,-146.87 594,-136.86 585.05,-142.53 590.54,-146.87"/>
</g>
<!-- requirements -->
<g id="node10" class="node">
<title>requirements</title>
<path fill="none" stroke="black" d="M765.68,-132.4C765.68,-132.4 682.32,-132.4 682.32,-132.4 676.32,-132.4 670.32,-126.4 670.32,-120.4 670.32,-120.4 670.32,-108.4 670.32,-108.4 670.32,-102.4 676.32,-96.4 682.32,-96.4 682.32,-96.4 765.68,-96.4 765.68,-96.4 771.68,-96.4 777.68,-102.4 777.68,-108.4 777.68,-108.4 777.68,-120.4 777.68,-120.4 777.68,-126.4 771.68,-132.4 765.68,-132.4"/>
<text xml:space="preserve" text-anchor="middle" x="724" y="-110.2" font-family="Times,serif" font-size="14.00">requirements.txt</text>
</g>
<!-- app&#45;&gt;requirements -->
<g id="edge5" class="edge">
<title>app-&gt;requirements</title>
<path fill="none" stroke="black" d="M473.96,-192.68C535.93,-188.9 625.8,-181.33 658,-168 673.32,-161.66 687.99,-150.65 699.59,-140.33"/>
<polygon fill="black" stroke="black" points="701.78,-143.07 706.72,-133.7 697.02,-137.95 701.78,-143.07"/>
</g>
<!-- jinja -->
<g id="node3" class="node">
<title>jinja</title>
<path fill="none" stroke="black" d="M89.6,-57.6C89.6,-57.6 28.4,-57.6 28.4,-57.6 22.4,-57.6 16.4,-51.6 16.4,-45.6 16.4,-45.6 16.4,-28 16.4,-28 16.4,-22 22.4,-16 28.4,-16 28.4,-16 89.6,-16 89.6,-16 95.6,-16 101.6,-22 101.6,-28 101.6,-28 101.6,-45.6 101.6,-45.6 101.6,-51.6 95.6,-57.6 89.6,-57.6"/>
<text xml:space="preserve" text-anchor="middle" x="59" y="-41" font-family="Times,serif" font-size="14.00">Jinja2</text>
<text xml:space="preserve" text-anchor="middle" x="59" y="-24.2" font-family="Times,serif" font-size="14.00">(templating)</text>
</g>
<!-- flask&#45;&gt;jinja -->
<g id="edge6" class="edge">
<title>flask-&gt;jinja</title>
<path fill="none" stroke="black" d="M139.91,-96.06C127,-86.76 110.8,-75.1 96.3,-64.66"/>
<polygon fill="black" stroke="black" points="98.46,-61.9 88.3,-58.89 94.37,-67.58 98.46,-61.9"/>
</g>
<!-- werkzeug -->
<g id="node4" class="node">
<title>werkzeug</title>
<path fill="none" stroke="black" d="M195.97,-57.6C195.97,-57.6 132.03,-57.6 132.03,-57.6 126.03,-57.6 120.03,-51.6 120.03,-45.6 120.03,-45.6 120.03,-28 120.03,-28 120.03,-22 126.03,-16 132.03,-16 132.03,-16 195.97,-16 195.97,-16 201.97,-16 207.97,-22 207.97,-28 207.97,-28 207.97,-45.6 207.97,-45.6 207.97,-51.6 201.97,-57.6 195.97,-57.6"/>
<text xml:space="preserve" text-anchor="middle" x="164" y="-41" font-family="Times,serif" font-size="14.00">Werkzeug</text>
<text xml:space="preserve" text-anchor="middle" x="164" y="-24.2" font-family="Times,serif" font-size="14.00">(HTTP utils)</text>
</g>
<!-- flask&#45;&gt;werkzeug -->
<g id="edge7" class="edge">
<title>flask-&gt;werkzeug</title>
<path fill="none" stroke="black" d="M164,-96.25C164,-88.22 164,-78.4 164,-69.12"/>
<polygon fill="black" stroke="black" points="167.5,-69.35 164,-59.35 160.5,-69.35 167.5,-69.35"/>
</g>
<!-- db -->
<g id="node6" class="node">
<title>db</title>
<path fill="none" stroke="black" d="M314.08,-54.8C314.08,-54.8 243.92,-54.8 243.92,-54.8 237.92,-54.8 231.92,-48.8 231.92,-42.8 231.92,-42.8 231.92,-30.8 231.92,-30.8 231.92,-24.8 237.92,-18.8 243.92,-18.8 243.92,-18.8 314.08,-18.8 314.08,-18.8 320.08,-18.8 326.08,-24.8 326.08,-30.8 326.08,-30.8 326.08,-42.8 326.08,-42.8 326.08,-48.8 320.08,-54.8 314.08,-54.8"/>
<text xml:space="preserve" text-anchor="middle" x="279" y="-32.6" font-family="Times,serif" font-size="14.00">whoknows.db</text>
</g>
<!-- sqlite&#45;&gt;db -->
<g id="edge8" class="edge">
<title>sqlite-&gt;db</title>
<path fill="none" stroke="black" d="M263.54,-96.25C265.9,-87.32 268.85,-76.18 271.53,-66.02"/>
<polygon fill="black" stroke="black" points="274.85,-67.17 274.02,-56.61 268.08,-65.38 274.85,-67.17"/>
</g>
</g>
</svg>